<?xml version="1.0" encoding="UTF-8" standalone="no"?>
<svg
   width="1033.6127pt"
   height="1218.0808pt"
   viewBox="0 0 1033.6127 1218.0808"
   version="1.1"
   id="svg22"
   sodipodi:docname="Icewolf Tech Logo.ai"
   xmlns:inkscape="http://www.inkscape.org/namespaces/inkscape"
   xmlns:sodipodi="http://sodipodi.sourceforge.net/DTD/sodipodi-0.dtd"
   xmlns="http://www.w3.org/2000/svg"
   xmlns:svg="http://www.w3.org/2000/svg">
  <defs
     id="defs26" />
  <sodipodi:namedview
     id="namedview24"
     pagecolor="#505050"
     bordercolor="#eeeeee"
     borderopacity="1"
     inkscape:showpageshadow="0"
     inkscape:pageopacity="0"
     inkscape:pagecheckerboard="0"
     inkscape:deskcolor="#505050"
     inkscape:document-units="pt"
     showgrid="false" />
  <rect
     x="-683.19379"
     y="-590.95923"
     width="2400"
     height="2400"
     fill="#141516"
     fill-opacity="1"
     id="rect18"
     style="display:none" />
  <path
     fill-rule="nonzero"
     fill="#80a4ff"
     fill-opacity="1"
     d="m 582.939,1059.8299 c 13.4063,0.3125 26.6328,3.9218 38.0742,11.0859 56.9649,35.6719 -10.4531,90.4766 -55.1757,128.25 -8.7579,7.3984 -1.168,21.8203 9.6875,18.3984 136.664,-43.0898 143.7187,-127.9414 123.4648,-205.4257 -9.8594,-37.71884 -29.0039,-66.77354 -47.6836,-100.81644 -37.4141,-68.1875 -60.375,-120.3125 -62.7461,-154.0704 -2.6406,-37.6367 6.3125,-86.3789 46.9531,-119.957 66.4844,-54.92578 187.3321,-87.21484 239.4493,-82.58593 23.5742,2.09375 27.5585,25.42187 16.5976,50 -52.8008,118.40623 -152.582,101.29293 -199.7656,118.92183 -19.0742,7.129 -28.4883,26.4219 -24.5938,45.625 19.3633,95.5704 97.7696,162.4532 141.3477,191.7852 33.7266,22.7031 45.3555,18.9219 59.6133,-6.2461 l 148.164,-242.1601 c 21.9532,-38.7461 21.336,-77.0625 7.4453,-120.60552 C 1011.7242,551.18529 995.5679,520.59935 1004.6304,481.2556 1065.7437,215.97435 949.3101,98.92357 879.5289,16.22045 853.7593,-14.31862 811.4195,0.87278955 801.939,40.04857 774.9859,151.38842 738.4273,208.8767 704.6851,255.23998 656.0562,322.06029 598.0679,370.26732 516.8062,370.52904 435.54448,370.26732 377.5562,322.06029 328.92729,255.23998 295.1812,208.8767 258.62651,151.38842 231.67339,40.04857 222.19292,0.87278955 179.84917,-14.31862 154.08354,16.22045 84.302289,98.92357 -32.127391,215.97435 28.981979,481.2556 c 9.0625,39.34375 -7.09375,69.92969 -19.1406204,110.77344 -13.89063,43.54302 -14.50782,81.85942 7.4492104,120.60552 l 148.160161,242.1601 c 14.25781,25.168 25.89063,28.9492 59.61328,6.2461 43.57813,-29.332 121.98438,-96.2148 141.35156,-191.7852 3.88672,-19.2031 -5.52343,-38.496 -24.59765,-45.625 -47.1836,-17.6289 -146.96485,-0.5156 -199.76563,-118.92183 -10.96093,-24.57813 -6.97656,-47.90625 16.59375,-50 52.1211,-4.62891 172.96875,27.66015 239.44922,82.58593 40.64453,33.5781 49.59766,82.3203 46.95703,119.957 -2.37109,33.7579 -25.33203,85.8829 -62.74609,154.0704 -18.67969,34.0429 -37.82422,63.0976 -47.68359,100.81644 -20.25391,77.4843 -13.19532,162.3359 123.46484,205.4257 10.85547,3.4219 18.44531,-11 9.6875,-18.3984 -44.72266,-37.7734 -112.14063,-92.5781 -55.17578,-128.25 11.4414,-7.1641 24.66797,-10.7734 38.07422,-11.0859 z m 0,0"
     id="path20" />
</svg>
